<svg width="80" height="79" viewBox="0 0 80 79" fill="none" xmlns="http://www.w3.org/2000/svg">
<path fill-rule="evenodd" clip-rule="evenodd" d="M0.541016 18C0.541016 8.05888 8.59989 0 18.541 0H61.541C71.4821 0 79.541 8.05887 79.541 18V61C79.541 70.9411 71.4821 79 61.541 79H18.541C8.59989 79 0.541016 70.9411 0.541016 61V18ZM40.1617 49.8656C29.723 49.8656 21.5001 57.7317 21.5001 67.1497H17.5001C17.5001 55.2671 27.7782 45.8656 40.1617 45.8656C52.5451 45.8656 62.8232 55.2671 62.8232 67.1497H58.8232C58.8232 57.7317 50.6003 49.8656 40.1617 49.8656ZM50.1591 27.1028C50.1591 33.0676 45.6013 37.5659 40.3848 37.5659C35.1682 37.5659 30.6104 33.0676 30.6104 27.1028C30.6104 21.1381 35.1682 16.6397 40.3848 16.6397C45.6013 16.6397 50.1591 21.1381 50.1591 27.1028ZM54.1591 27.1028C54.1591 35.0906 47.9921 41.5659 40.3848 41.5659C32.7774 41.5659 26.6104 35.0906 26.6104 27.1028C26.6104 19.1151 32.7774 12.6397 40.3848 12.6397C47.9921 12.6397 54.1591 19.1151 54.1591 27.1028Z" fill="black"/>
</svg>
